<?xml version="1.0" encoding="utf-8"?>
<svg xmlns="http://www.w3.org/2000/svg" xmlns:xlink="http://www.w3.org/1999/xlink" version= "1.1" width="600px" height="1167px" viewBox="0 0 600 1167">
<g id="layer1">
<g style="fill:rgb(84,80,80); fill-opacity:1.0; stroke-linejoin: miter">
<path d="M171.324,349.8463Q55.893284,430.38324,23.542557,509.04172Q-15.167558,605.38,13.005496,724.1449Q27.60325,776.42737,49.396297,787.452Q56.72867,790.7234,65.02204,787.04333Q67.76181,787.0729,92.3367,768.0123Q97.869255,764.5339,102.77121,764.33014Q107.156075,764.2358,112.25757,767.14185Q135.38304,784.26984,137.3333,783.9712Q145.06227,787.2941,151.97476,785.6135Q164.26285,782.66406,181.61842,763.5591Q186.78876,759.70996,234.78935,695.25854Q245.31464,682.2467,257.75253,670.09644L171.3369,349.89407"/>
</g>
<g style="fill:rgb(239,194,165); fill-opacity:1.0; stroke-linejoin: miter">
<path d="M405.3243,540.1814L214.11394,604.20874Q210.19873,680.76227,210.81262,679.05725Q210.5031,707.97656,212.37785,728.4113Q215.64381,756.59015,233.21272,780.946Q258.82562,815.26843,290.46094,836.39923Q330.28564,859.295,372.58417,823.40015Q406.43665,785.4632,413.76093,719.0323Q420.93018,665.8277,405.33728,540.29193"/>
</g>
<g style="fill:rgb(227,229,229); fill-opacity:1.0; stroke-linejoin: miter">
<path d="M418.28137,652.68427Q415.94003,652.6585,414.51144,660.49854L415.4552,711.68896L355.3616,791.0922L322.061,804.2341L321.18747,804.41724L286.406,784.27454L256.2307,762.215L229.40012,733.0169L209.62645,701.0977L211.36674,656.9696Q206.07512,658.66516,200.86789,668.4046Q197.90855,672.96265,184.32266,707.4868Q170.4864,713.1128,153.52806,718.1479Q52.02749,745.28516,22.697552,755.52856Q46.901283,812.3193,68.61961,838.5814Q89.201,865.318,144.48822,907.3932L238.03238,948.2999Q294.55072,954.0194,330.0427,953.9868Q411.80743,956.7916,476.33212,912.23584Q569.3313,849.23956,602.0023,775.73334L447.4662,710.38367L426.68497,663.91766Q421.1615,652.713,418.2954,652.6843"/>
</g>
<g style="fill:rgb(170,183,191); fill-opacity:1.0; stroke-linejoin: miter">
<path d="M364.71207,801.33453Q352.74112,812.5184,346.95648,815.4732Q340.56058,819.0829,331.81686,819.19293Q325.1092,819.42303,309.37213,817.4035L281.79733,803.01764L269.05383,822.46344Q279.5209,856.8795,285.5343,871.6637Q290.61072,884.3305,296.77118,890.0705L276.23953,950.51697L278.00635,957.94086L330.12918,958.09216L333.90216,897.74207Q335.86932,897.7075,340.0899,886.0625Q340.17206,886.69006,357.89206,833.5298Q360.90308,824.76373,362.7986,819.97375Q366.4636,810.51825,368.94144,808.6662L364.75522,801.4091"/>
</g>
<g style="fill:rgb(0,0,0); fill-opacity:1.0; stroke-linejoin: miter">
<path d="M318.74765,327.19427Q447.27655,329.30725,538.91833,418.58426Q628.46277,511.0563,629.9678,639.6506Q628.2534,766.3185,538.423,859.2993Q446.68402,948.29944,318.02252,950.1941Q189.4981,948.01074,97.9088,858.69385Q9.394821,767.9238,6.969059,638.8512Q8.237259,512.1892,97.67433,418.93066Q189.01613,329.61832,317.64557,327.1962 M318.75677,317.0082Q187.6636,318.5095,91.89586,410.304Q-1.0641747,505.46356,-3.216938,637.9399Q-1.1489449,770.92334,89.809906,864.99634Q184.0029,957.64966,317.0586,960.3783Q448.16428,959.3419,544.29285,867.82544Q637.5968,772.91693,640.15125,640.4352Q638.9503,507.93268,546.9232,412.18628Q452.63202,319.60623,319.5682,317.00925"/>
</g>
<g style="fill:rgb(239,194,165); fill-opacity:1.0; stroke-linejoin: miter">
<path d="M368.2525,291.8307Q332.64514,289.29883,230.78122,327.41916L169.27211,351.1763Q161.38077,354.3371,155.03185,357.77667Q135.96672,368.433,135.39955,378.88824Q134.30734,387.27777,137.02028,398.63806Q158.46237,461.3108,161.52718,476.63788L168.59396,507.21472L179.7337,564.9722Q187.44164,593.5602,197.0516,609.2862Q209.29602,630.67596,246.37537,666.1166Q270.6379,681.83325,276.54434,682.4299Q294.26288,684.5127,319.2035,685.6072Q335.73187,685.64746,343.935,681.91034L391.7746,653.921Q409.97272,641.3807,420.7168,616.7368Q430.17926,596.5966,447.38153,538.06396L458.11444,442.52612Q461.89868,414.63705,472.42853,362.16693Q426.278,291.2302,369.53082,291.8331"/>
</g>
<g style="fill:rgb(239,194,165); fill-opacity:1.0; stroke-linejoin: miter">
<path d="M488.1804,440.43207Q479.68503,440.09763,453.93704,460.6201L429.37683,534.55493Q440.942,550.0004,446.29056,554.87396Q452.52707,560.8384,456.94965,560.7377Q464.71268,561.5103,475.45084,540.3599Q479.57855,532.40027,481.75977,525.0703Q482.66263,523.147,486.35736,503.81552Q487.19836,500.21823,488.32678,497.34296Q489.33075,494.76093,491.11542,492.0335L498.21118,482.2197Q499.7005,479.79633,500.40915,477.0731Q502.8131,468.37003,497.2439,449.17828Q494.3652,440.2577,488.18207,440.43207"/>
</g>
<g style="fill:rgb(239,194,165); fill-opacity:1.0; stroke-linejoin: miter">
<path d="M116.276306,447.83344Q108.67874,447.43436,107.68251,456.83105Q107.102875,461.72635,108.55013,470.92017Q110.30106,482.24228,112.27664,486.18726Q113.30834,488.32623,114.384476,489.34534L120.8127,493.6988Q122.79212,495.47247,124.19544,498.01666Q125.27514,499.88284,126.6428,503.49884Q133.44815,523.82574,135.22208,527.2882Q138.2844,534.3981,142.61926,540.06665Q147.96304,547.0969,155.75197,553.1915Q166.02118,561.2686,168.85602,560.666Q173.11453,560.8624,177.87897,553.151Q183.77977,543.8535,192.70901,523.70197Q198.87213,507.7389,193.38266,496.03824Q188.36597,483.6545,161.42453,467.50842L147.01268,458.5668L136.92242,453.87598Q123.404686,447.89923,116.39935,447.8339"/>
</g>
<g style="fill:rgb(221,161,122); fill-opacity:1.0; stroke-linejoin: miter">
<path d="M146.40947,422.776C146.31126,422.776,146.21156,422.78668,146.11172,422.8089C145.37622,422.97263,144.91272,423.70163,145.07634,424.4366L145.08769,424.4877L145.0878,424.48822C146.74,431.90997,148.43776,439.55908,151.21823,445.23026L151.21823,445.23026C151.649,446.1089,152.10287,446.93442,152.56113,447.7684C153.07086,448.6961,153.59114,449.64334,154.13412,450.75085C156.28096,455.12967,158.85236,462.15878,161.59471,479.3113C162.36899,484.15408,163.15567,489.7951,164.02371,496.01984C165.08176,503.607,166.26027,512.05774,167.67494,520.90594C171.16844,542.75653,176.12465,567.1913,184.38454,587.62756C198.74672,623.1619,223.03537,646.44586,247.09084,669.5281C247.13321,669.5687,247.1781,669.6066,247.22482,669.64105L247.2925,669.69104L247.29305,669.69147C254.78549,675.22003,262.4348,680.8365,278.11957,684.09357C291.0853,686.7861,309.5589,687.8702,322.08038,687.8702C324.61353,687.8702,326.90308,687.8258,328.85413,687.7414C338.2216,687.3362,340.17758,685.9536,345.55328,681.9635L345.55325,681.9635C346.9686,680.913,348.63745,679.6746,350.77267,678.21704L350.7727,678.21704C355.2546,675.15753,361.83932,671.09656,369.0532,666.6481C377.64642,661.34894,387.1272,655.50256,394.853,650.22864L394.85303,650.2286C395.0893,650.06726,395.35364,649.88617,395.5865,649.726L395.58658,649.72595C409.96484,639.8344,417.94724,631.97595,426.7785,609.67554C435.54562,587.5371,445.21274,551.0415,451.14368,518.5433C457.07922,486.0198,459.27838,457.46732,461.473,428.9849C461.53088,428.2336,460.96878,427.57764,460.2175,427.51974C460.18182,427.517,460.1464,427.51566,460.1112,427.51566C459.40527,427.51566,458.8075,428.05963,458.75235,428.77524C456.5571,457.26575,454.3662,485.68707,448.45935,518.0534C442.54758,550.4466,432.92038,586.7553,424.24152,608.6709C415.6272,630.42346,408.013,637.8652,394.04,647.4779L394.04,647.4779C393.8273,647.6242,393.53094,647.8273,393.3145,647.97504L393.31445,647.97504C385.64905,653.20776,376.23123,659.01575,367.62094,664.32544C360.43176,668.7587,353.7799,672.86035,349.23425,675.9634L349.23428,675.9634C347.04843,677.4555,345.34653,678.7188,343.92697,679.77246L343.92694,679.77246C338.90793,683.4978,337.46548,684.6377,328.7362,685.0153C326.81912,685.09827,324.56906,685.1417,322.07947,685.1417C309.70544,685.1417,291.41376,684.0674,278.67438,681.42194C263.57187,678.28577,256.301,672.94714,248.92732,667.5062L248.92484,667.5062C224.85117,644.4065,201.01764,621.49884,186.91438,586.6051C178.77487,566.4667,173.85608,542.28314,170.3694,520.47516C168.95944,511.65643,167.78487,503.2342,166.72626,495.64294C165.85948,489.4273,165.06848,483.75482,164.28917,478.88052C161.52493,461.59116,158.89708,454.2671,156.5842,449.54962C156.01,448.37845,155.4604,447.3786,154.95258,446.45438C154.4898,445.61218,154.0663,444.84085,153.66829,444.02905L153.66827,444.02902C151.0615,438.71213,149.42697,431.42245,147.7514,423.89578L147.75139,423.89578L147.74004,423.8447L147.73993,423.84418C147.59842,423.2085,147.03471,422.776,146.40947,422.776 Z"/>
</g>
<g style="fill:rgb(221,161,122); fill-opacity:1.0; stroke-linejoin: miter">
<path d="M211.96281,627.30133L206.53574,694.02795Q208.98276,702.09814,220.34503,720.8428Q236.29857,746.6827,254.2066,761.16046Q263.5141,768.91364,275.82202,776.9733Q303.23178,794.3194,312.27625,800.64734L321.7883,805.63586L346.88156,794.7227Q351.78387,792.7045,354.1693,792.8686Q350.87122,794.1908,419.26013,705.0015Q414.39777,634.60547,413.65912,633.075Q411.89966,631.6838,411.30704,634.1315Q411.5844,635.3455,416.708,703.98444Q351.33093,789.2388,352.55704,790.3472Q351.0022,789.34357,322.08344,802.80597L313.66937,798.38525Q304.78473,792.16656,276.8886,774.4971Q264.83313,766.5563,256.2011,759.3683Q238.64066,745.14996,223.4953,720.88403Q211.52115,701.3158,209.21191,693.5249L214.58136,627.84393L214.58276,627.51556L212.09906,627.3125"/>
</g>
<g style="fill:rgb(206,202,203); fill-opacity:1.0; stroke-linejoin: miter">
<path d="M189.89499,704.43134Q188.47488,704.6731,188.47455,705.86804L190.26778,754.0404Q191.16855,771.03125,193.39305,781.9389Q195.7098,794.2694,202.09094,811.3341Q206.45547,823.2684,217.40302,848.92303Q217.6877,849.58514,218.55309,849.74146L257.04266,835.05585L283.263,801.27075L281.06662,799.46985L255.28058,832.75995L219.51338,846.4923Q199.73781,801.17303,196.48663,782.9141Q194.22522,772.20154,193.37549,758.156L191.31122,705.7674Q191.14041,704.6061,190.02783,704.4375"/>
</g>
<g style="fill:rgb(206,202,203); fill-opacity:1.0; stroke-linejoin: miter">
<path d="M442.32355,702.7784Q440.9549,702.8322,440.92743,704.456Q445.63562,716.05255,447.63654,742.8819Q448.5756,759.507,446.3436,774.71106Q443.30185,799.4903,420.68228,850.593Q411.03238,838.8263,380.68338,815.07385L362.95773,801.1509L361.10492,803.2975Q409.6327,840.6124,421.0055,854.6421Q421.78464,854.71875,422.34253,853.9088L425.1476,847.37634Q434.99966,824.4723,439.95267,810.29443Q447.174,789.8367,449.28503,774.2013Q451.878,755.4148,449.9015,735.29565Q448.5882,722.435,446.52087,713.17004Q445.5324,708.7121,443.64664,703.6835Q443.1355,702.75055,442.3634,702.77893"/>
</g>
<g style="fill:rgb(138,82,58); fill-opacity:1.0; stroke-linejoin: miter">
<path d="M365.56738,410.23764Q361.94797,410.22314,359.07742,411.35297Q349.35605,416.0541,343.39764,418.6887L355.86478,424.55276Q361.33426,424.19492,363.59418,423.58228Q364.5348,423.34366,365.31024,422.97153Q367.56357,421.54007,367.8855,421.48062Q368.7039,421.12195,369.9282,420.86Q372.16647,420.3844,375.95126,420.2974Q380.24567,420.1815,388.21863,420.6695Q390.82825,420.77072,416.05182,422.70084Q420.87903,423.04044,423.77472,423.1726Q430.60144,423.49576,430.86203,422.8545Q430.7009,421.1622,410.99048,417.13507Q407.55524,416.46906,403.5165,415.8028L388.7724,413.5028L374.62198,411.1322Q368.93362,410.25494,365.72665,410.23813"/>
</g>
<g style="fill:rgb(138,82,58); fill-opacity:1.0; stroke-linejoin: miter">
<path d="M246.15005,415.60327Q233.49731,417.54327,226.47804,418.23755Q223.10136,418.58588,219.60098,418.82913Q218.34477,418.93427,208.76695,419.47876Q206.7925,419.6015,205.46982,419.70663Q202.09114,419.9685,200.13547,420.32428Q194.56506,421.18118,196.18481,424.77628Q213.3708,424.67676,221.46198,424.45276Q225.63806,424.34177,228.75128,424.19122L240.16342,423.5666Q242.57004,423.46448,244.41606,423.5068Q249.97939,423.51163,257.61932,426.2449L274.11423,421.16562Q266.88904,419.0632,261.18903,417.92615Q256.0605,416.88126,246.23335,415.61432"/>
</g>
<g style="fill:rgb(232,209,195); fill-opacity:1.0; stroke-linejoin: miter">
<path d="M384.53305,446.55057Q383.273,446.54773,381.70483,446.7623L376.7431,447.59637L370.99112,448.4034Q368.24084,448.84442,366.42944,449.43997Q362.0508,450.75815,358.3169,455.02072Q352.20413,462.44397,354.25366,464.2397Q356.12918,467.5712,366.04227,467.52316Q372.2893,467.58267,389.34332,466.12143L406.39224,460.72153Q399.09152,453.15094,393.62436,449.54694Q389.05704,446.4945,384.58023,446.55063"/>
</g>
<g style="fill:rgb(232,209,195); fill-opacity:1.0; stroke-linejoin: miter">
<path d="M243.23688,448.9069Q241.94257,448.91855,241.19078,449.17197L238.12314,450.4979Q237.39182,450.77103,236.4161,450.91702Q235.48965,451.04688,234.24051,451.0829Q228.30502,451.10812,228.16971,451.16837Q226.68169,451.25507,225.6554,451.52347Q224.64096,451.784,223.74706,452.21347Q217.78615,455.65616,215.40414,456.3586Q213.7316,456.92166,212.30173,457.11716Q211.51923,457.25983,208.2954,457.3894L207.43388,457.49313Q206.58804,457.66815,206.49052,458.01303Q205.9905,458.94202,210.44183,462.6651Q215.16234,466.50247,219.87856,469.06824Q226.29912,472.6256,233.63898,472.55222Q236.74292,472.56946,241.00314,472.1314Q243.1271,471.95724,253.26643,470.57797L256.16718,470.27585Q259.08832,470.01447,261.68225,470.31323L272.68048,466.7402Q258.75876,454.26135,255.14136,452.29623Q250.49437,449.45758,243.36359,448.9076"/>
</g>
<g style="fill:rgb(138,82,58); fill-opacity:1.0; stroke-linejoin: miter">
<path d="M389.51154,447.3708Q393.57193,447.32162,397.25555,450.00116Q401.29413,452.76663,408.85205,460.78815L396.5168,464.25827Q379.22824,467.11984,378.9283,467.08163Q374.7389,467.65775,371.19867,467.66492Q365.04102,467.79233,352.19113,465.00366Q354.20416,458.1765,356.9456,455.27783Q360.33875,451.2213,369.7987,448.88986Q374.19073,447.83508,378.29648,447.5014Q379.6625,447.3936,381.08997,447.40338L385.59064,447.57086L389.396,447.3712 M389.51028,446.25186L385.58667,446.45218L380.9632,446.28387Q379.4953,446.27527,377.85663,446.41455Q373.44644,446.80368,368.70303,448.01147Q359.18008,450.47092,355.67065,455.04825Q354.031,457.03937,352.81665,459.90253Q352.04807,461.6599,350.9347,465.2685Q350.84293,465.60208,351.07248,465.84082Q355.46573,466.95123,362.59753,468.0825Q367.30597,468.78516,370.97275,468.7835Q374.63058,468.79428,378.94272,468.20853Q379.35178,468.2354,396.74612,465.35388L410.1103,461.59628Q410.2417,461.56976,410.38983,461.41003Q410.63916,461.05234,410.3861,460.7037L405.97525,456.20038Q401.34796,451.57242,398.39673,449.44205Q394.06027,446.1739,389.58038,446.252"/>
</g>
<g style="fill:rgb(223,173,131); fill-opacity:1.0; stroke-linejoin: miter">
<path d="M288.3367,458.10376Q287.2794,473.05408,286.9881,480.0209Q286.8764,482.7078,286.87283,484.33163Q286.8417,485.4368,286.99948,489.74023Q287.01196,490.81747,286.92407,492.14716Q286.81067,493.8129,286.50702,496.41898L285.07504,508.23273L284.6933,512.9325Q284.67712,513.48914,283.0553,516.1302Q279.70837,521.7462,271.18326,535.57245Q270.0169,537.607,269.67993,540.4893Q269.21164,544.4054,270.7509,547.56866Q272.5346,551.0319,276.84512,554.80774Q277.62274,554.63385,277.35324,553.97174Q272.45743,549.10675,271.5034,546.53076Q270.444,544.1401,270.7869,540.65466Q271.11572,537.87616,272.19434,536.05524L284.17346,516.43915Q285.68082,513.98883,285.77103,513.23505Q285.8672,512.7596,285.88156,512.4744Q285.9781,510.21594,286.1814,508.40796L287.68973,495.91873Q288.01102,493.09448,288.08572,491.41815Q288.12936,490.4922,288.11603,489.54837Q287.9712,485.7925,287.99078,484.52664Q287.98972,482.90567,288.09985,480.21045Q288.366,473.5951,289.44604,458.27786L288.36667,458.10583"/>
</g>
<g style="fill:rgb(223,173,131); fill-opacity:1.0; stroke-linejoin: miter">
<path d="M344.24472,527.65375L343.26993,528.2003Q350.53006,539.42017,350.12045,545.54456Q349.96454,548.3026,348.38043,551.16504Q346.93387,553.9164,342.4895,558.8308Q342.2972,559.14404,342.46606,559.4395Q342.85397,559.9317,343.35754,559.5327Q347.18616,555.2899,348.67685,552.85944Q351.06885,549.08453,351.24008,545.5559Q351.62476,539.0328,344.25415,527.66907"/>
</g>
<g style="fill:rgb(223,173,131); fill-opacity:1.0; stroke-linejoin: miter">
<path d="M333.98343,554.66974Q334.14618,555.48254,333.98468,554.67664 M334.4257,556.5758L334.36823,556.59644Q334.50266,556.59283,334.44672,556.579 M334.24924,556.5933Q333.93237,556.66486,333.9708,556.68756Q334.09085,556.6864,334.32352,556.6115Q334.42313,556.5926,334.2609,556.59393 M327.68338,557.2857Q327.44638,557.294,327.6862,557.2859 M334.20306,553.4604Q334.09772,553.4677,333.91852,553.524Q333.665,553.4979,333.41336,553.51355Q333.2275,553.5274,333.265,553.55164Q333.32132,553.56366,333.53012,553.55444Q331.67856,553.6601,330.4633,553.7909Q329.39642,553.90295,327.69623,554.173Q327.95044,554.1332,328.03876,554.10004Q328.09518,554.0641,327.89877,554.08844Q327.6532,554.12085,327.34955,554.2184Q327.16034,554.2073,327.1023,554.2235Q327.0941,554.2429,327.2209,554.24976Q327.23495,554.26294,327.34863,554.22095Q327.46295,554.2314,327.5684,554.2516Q327.48657,554.2593,327.25464,554.2518Q327.15298,554.28625,327.0117,554.3497Q326.57825,554.5488,326.31952,554.8212Q325.8723,555.2926,325.9502,555.94104Q326.10577,557.0684,327.47986,557.30597L327.5551,557.28906L327.53574,555.7734L327.5558,557.2872Q327.70178,557.2509,327.86044,557.22394Q327.77853,557.25684,327.6879,557.28534L327.802,557.2792Q328.38058,557.24347,329.7037,557.1132Q331.66467,556.9181,333.27924,556.72266Q333.82977,556.65576,334.2538,556.59235L334.30505,556.58136Q334.27414,556.6078,334.05566,556.56854Q334.31198,556.5617,334.42453,556.57513Q334.62845,556.5008,334.81006,556.3967Q335.8246,555.80347,335.62573,554.7492Q335.51346,554.21655,335.0653,553.9045Q334.8426,553.74664,334.5145,553.64215Q334.3452,553.58905,334.1499,553.5552Q333.99207,553.5195,333.95642,553.5527Q333.9777,553.5218,333.89273,553.5344Q333.90808,553.51636,334.0282,553.53534Q334.2791,553.4687,334.20575,553.4604 M327.67307,557.2899Q327.57465,557.3346,327.48553,557.30695Q327.37274,557.34375,327.43707,557.34143L327.58267,557.31885Q327.77856,557.3385,327.89047,557.32446Q327.96887,557.2949,327.6831,557.29"/>
</g>
<g style="fill:rgb(223,173,131); fill-opacity:1.0; stroke-linejoin: miter">
<path d="M301.79745,550.9026Q301.41263,550.94214,301.78256,550.90356 M301.83197,550.8994Q302.1524,554.5763,301.8299,550.90607 M302.15012,554.5654L302.1495,554.58185Q302.07318,554.5876,302.14258,554.56696 M301.99115,550.8141Q301.9115,550.81964,301.70782,550.8793Q301.36008,550.86115,301.18707,550.8975Q301.07666,550.9428,301.57077,550.9188L301.4735,550.93616Q299.46185,551.1517,297.93863,551.2891Q295.15244,551.54144,293.61533,551.5713L293.68588,555.2661Q296.10873,555.2038,297.71973,555.0832Q299.0646,554.9862,301.2155,554.7066Q300.58182,554.81714,301.20108,554.77686Q301.53555,554.74243,302.1244,554.58435Q302.6111,554.6313,302.83688,554.575Q302.84717,554.55286,302.7098,554.55255Q302.53326,554.5496,302.1643,554.58057Q302.14886,554.5793,302.15298,554.5681Q304.13858,553.8677,303.81876,552.329Q303.6951,551.77466,303.26575,551.41797Q302.9651,551.1661,302.49924,551.0195Q301.84888,550.8421,301.63345,550.9087Q302.0313,550.83124,301.99277,550.8141"/>
</g>
<g style="fill:rgb(100,42,42); fill-opacity:1.0; stroke-linejoin: miter">
<path d="M249.04803,449.00665Q247.16681,448.9819,242.13235,449.5242L229.2664,451.14435Q231.8944,460.35245,234.22337,463.6352Q236.47086,466.92923,240.3168,466.86655Q246.73994,466.96942,249.0921,461.59882Q249.91766,459.93103,250.84064,457.10535L252.39598,452.25296Q252.6715,451.30612,252.67015,450.72418Q252.85999,448.93353,249.08107,449.00668"/>
</g>
<g style="fill:rgb(138,82,58); fill-opacity:1.0; stroke-linejoin: miter">
<path d="M248.54466,450.1428Q253.49545,450.12006,258.5244,453.61008Q264.01276,457.38123,272.786,466.75818Q272.62097,466.71338,270.7363,467.93787Q270.30627,468.16568,269.93207,468.27573L264.30865,469.20288Q243.53082,472.22977,230.70999,473.23767Q229.3924,473.2641,228.55087,472.799L217.22618,467.1549L214.70955,465.78912Q213.67497,465.20004,212.73793,464.59048Q208.27945,461.76276,206.9221,457.66876Q214.66333,456.2769,217.84029,455.41333Q219.65274,455.03757,225.69519,452.68787Q226.87306,452.29816,228.05789,452.0857Q229.18236,451.879,230.96933,451.7607Q238.1576,451.51526,238.29382,451.42715Q238.74583,451.4604,245.74115,450.3495Q247.31583,450.14478,248.45059,450.14307 M248.54706,449.02463Q247.19931,449.02893,245.68971,449.22842Q238.424,450.37366,238.245,450.3081Q238.138,450.3958,230.78795,450.6515Q229.06647,450.76364,227.75627,451.00342Q226.63016,451.20496,225.2922,451.6427Q219.28592,453.97095,217.76355,454.27615Q214.57234,455.17105,205.98769,456.69464Q205.79994,456.75363,205.68718,456.91724Q206.59096,461.72522,211.43535,465.0598Q213.19354,466.299,216.31775,467.9424L228.0366,473.79242Q229.25443,474.4005,230.6247,474.35678Q242.80368,473.45227,264.45053,470.31287L269.64996,469.48816L270.2277,469.35455Q270.75272,469.19254,271.1546,468.9814L272.83145,467.95483Q273.10504,467.80368,273.31177,467.78146Q273.62924,467.7398,274.03027,468.09988L275.9327,470.12842L276.75922,469.37442Q266.04428,457.62585,259.87585,453.1933Q254.05121,448.9701,248.64262,449.0249"/>
</g>
<g style="fill:rgb(100,42,42); fill-opacity:1.0; stroke-linejoin: miter">
<path d="M378.26428,446.80225L364.52145,450.21146Q365.60452,458.3404,368.22635,460.96924Q369.6096,462.60156,372.99338,464.5039Q376.5574,465.7011,378.31598,465.7394Q380.1852,465.83038,381.5597,464.9781Q382.9355,464.11884,384.21234,462.03284Q386.76718,457.8551,389.63632,447.29553L389.6313,447.26816L378.3131,446.80426"/>
</g>
<g style="fill:rgb(240,166,126); fill-opacity:1.0; stroke-linejoin: miter">
<path d="M312.416,591.94946Q308.8443,591.95184,305.14343,592.25Q304.14224,592.25555,289.35782,593.88007Q286.57404,594.1604,282.8523,594.47266Q276.84418,595.00854,255.40572,596.4139L282.1403,609.00024Q307.12045,613.09174,319.21768,612.9941Q330.8745,613.0585,341.68646,609.713Q351.56235,606.8201,371.91852,596.85645Q360.5821,597.8146,354.01016,597.1883Q351.13297,596.9612,347.08072,596.33453L332.61713,593.8201Q329.2682,593.26636,326.264,592.88934Q318.82217,591.9497,312.41687,591.94946"/>
</g>
<g style="fill:rgb(217,149,111); fill-opacity:1.0; stroke-linejoin: miter">
<path d="M371.46332,596.4729L349.27396,600.4419L289.7379,599.88226L258.81427,596.9284Q256.94992,597.9022,258.73364,598.994L289.6941,601.9674L349.43134,602.5243Q367.18335,599.3492,371.74796,598.5161Q373.37097,597.2965,371.4977,596.47345"/>
</g>
<g style="fill:rgb(129,96,96); fill-opacity:0.8156863; stroke-linejoin: miter">
<path d="M172.4989,354.36768Q159.00641,354.59982,152.08865,359.0465Q145.73225,362.9958,144.09763,372.9781Q140.99796,388.6729,144.00264,414.72714Q145.74937,429.53232,148.76491,442.50092Q151.917,455.6111,153.79825,456.21503Q154.74812,456.2169,154.87515,451.85226Q154.91891,450.36417,154.8697,448.46252Q154.36708,436.91217,154.39499,432.54877Q154.38791,426.46783,154.83752,421.66248Q155.68091,412.30402,158.49304,404.69913Q160.87106,398.16248,165.29997,391.91888Q167.59898,388.6442,170.85735,384.7748Q185.33943,368.52545,184.76958,368.80618Q188.09235,364.5673,188.58148,361.8572Q189.39438,354.79285,172.59496,354.36777"/>
</g>
<g style="fill:rgb(129,96,96); fill-opacity:0.8156863; stroke-linejoin: miter">
<path d="M407.96765,312.41013Q405.24106,312.46445,402.9012,313.48853L439.06598,355.43942Q447.78406,366.3271,450.13153,372.7999Q451.19458,375.6048,451.6303,378.05444L452.70142,386.6509Q452.57135,387.01016,455.36197,392.39664Q455.87192,393.54108,456.2862,394.7995Q457.29407,397.7813,457.78082,402.19537Q458.21487,405.97247,458.1164,412.28094Q458.14658,415.92365,457.04755,435.71405Q456.92752,438.98706,457.22406,439.06674Q458.30225,438.06512,462.61047,413.46466Q466.2088,392.28687,467.88373,376.89673Q470.51297,353.53027,467.27115,346.0698Q465.79544,342.1328,462.1208,340.07562Q441.52844,331.6117,440.20538,330.5967Q436.74255,328.8378,432.8921,326.3376L416.02582,314.95395Q411.595,312.4079,408.03943,312.41037"/>
</g>
<g style="fill:rgb(43,9,9); fill-opacity:1.0; stroke-linejoin: miter">
<path d="M264.55792,185.27644Q242.64044,185.0067,227.46722,191.40706Q217.02762,194.77818,184.9781,217.51404Q163.80719,232.72453,154.97627,243.43668Q151.0408,248.0906,147.73799,253.37712L131.83876,280.5241Q120.820175,304.11487,124.797745,339.94287Q134.43999,404.9642,148.70029,431.85986L151.22466,434.67075L151.30403,394.3299Q151.43651,387.24738,152.21057,386.26007Q153.15347,384.38364,155.4493,383.2356L174.85052,373.17822L175.40526,372.9729L178.78651,378.09375L185.72826,373.1116L177.19449,389.55164Q212.70549,372.0455,245.79144,353.65787Q255.27188,348.90033,262.0157,346.72943Q268.779,344.3161,287.78058,340.27228Q296.1976,335.6775,317.22263,331.4624Q364.63226,321.76697,380.30432,321.65698Q385.60864,321.9873,380.92636,325.02692Q381.476,325.43317,357.27817,336.9424Q356.36914,337.58264,361.16788,336.58466Q387.68893,329.5841,393.77344,328.91016Q413.53662,325.59473,418.05737,326.94678Q421.8194,327.58267,423.31244,329.96066Q424.09106,330.0733,426.13528,339.42917Q426.67062,341.0074,427.88565,342.11566L442.03616,347.50604Q445.28842,349.13013,448.7487,354.4747Q462.96976,385.42413,461.39417,388.95575Q462.80368,398.01886,456.9652,443.2843Q479.05347,385.32053,480.86703,316.74023Q485.09177,300.14307,458.83514,262.28787Q429.094,223.31825,369.96616,196.51381Q356.04218,190.90057,341.6756,189.47737L264.87125,185.27667"/>
</g>
<g style="fill:rgb(84,80,80); fill-opacity:1.0; stroke-linejoin: miter">
<path d="M476.7389,365.702L476.7389,365.702Q511.40933,386.01297,542.28,415.96985Q632.364,509.29327,634.19464,638.778Q633.1172,714.47845,601.819,777.82764L601.819,777.82764L601.83954,775.6645L446.8858,710.02057Q432.12454,674.49554,427.1093,664.7641Q421.15128,652.6867,418.4702,652.6867Q418.43494,652.6867,418.40024,652.6888L418.2814,652.68427Q416.80408,652.88184,415.72125,655.6193L415.72125,655.6193Q415.56622,653.58685,415.42212,651.7374L415.41797,651.7374Q415.0378,642.71924,414.41718,632.9369L414.41302,632.9369Q416.46808,630.28186,418.14572,627.4767Q430.85562,606.6033,443.89166,552.49493L443.8961,552.49493Q445.21826,553.8969,446.29056,554.87396Q452.42352,560.7393,456.80228,560.7393Q456.87622,560.7393,456.94965,560.7377Q457.22324,560.7649,457.50052,560.7649Q465.09113,560.7649,475.45084,540.3599Q479.57855,532.40027,481.75977,525.0703Q482.66263,523.147,486.35736,503.81552Q487.19836,500.21823,488.32678,497.34296Q489.33075,494.76093,491.11542,492.0335L498.21118,482.2197Q499.7005,479.79633,500.40915,477.0731Q502.8131,468.37003,497.2439,449.17828Q494.4204,440.4287,488.41794,440.4287Q488.30063,440.4287,488.18207,440.43207L488.1804,440.43207Q488.04416,440.4267,487.9035,440.4267Q480.20816,440.4267,459.2354,456.4779L459.2354,456.4779Q460.42633,442.7534,461.25357,428.13174Q460.90903,427.87247,460.60757,427.72955L460.60297,427.72955Q471.5427,403.46164,476.73413,365.702 Z"/>
</g>
<g style="fill:rgb(84,80,80); fill-opacity:1.0; stroke-linejoin: miter">
<path d="M493.14642,1110.2096Q490.6113,1110.2601,488.57895,1111.295Q487.78012,1111.7089,487.13925,1112.2543Q486.9021,1112.7026,486.54858,1113.1212Q486.21542,1113.5253,485.54245,1114.0881Q485.48108,1114.1484,485.5324,1114.1509Q485.55276,1114.1713,486.22498,1113.9745Q486.96036,1114.085,487.89398,1113.901Q488.27344,1113.8279,488.77048,1113.6863L490.58154,1113.1213Q490.9957,1112.9968,491.34457,1112.9159Q491.77682,1112.8157,492.14612,1112.7787Q492.42664,1112.7462,492.90222,1112.7593Q493.02127,1112.7533,493.10037,1112.741Q493.3941,1112.6957,493.61,1112.5803Q494.44882,1112.0894,494.32632,1111.0969Q494.10992,1110.1892,493.15814,1110.2096"/>
</g>
</g>
</svg>